# xmcd
#
# Track frame offsets:
#	150
#	19782
#	34139
#	48866
#	66603
#	81809
#	97116
#	109318
#	128328
#	141176
#	154643
#	170394
#	182062
#	196491
#
# Disc length: 2903 seconds
#
# Revision: 0
# Processed by: cddbd v1.5.2PL0 Copyright (c) Steve Scherf et al.
# Submitted via: dBpowerAMP V4.0
#
DISCID=bd0b550e
DTITLE=Ken Muller - Leaves In THe Wind
DYEAR=1900
DGENRE=Country
TTITLE0=Only Yesterday
TTITLE1=Like You Always Could do
TTITLE2=Leaves In The Wind
TTITLE3=My Homeland
TTITLE4=A Single Yellow Rose
TTITLE5=My Special Prayer
TTITLE6=Forgiving You Was Easy
TTITLE7=Simply Being You
TTITLE8=Out Of Sight Out of Mind
TTITLE9=Green Green Grass Of Home
TTITLE10=Life's Storybook Cover
TTITLE11=Just In Case
TTITLE12=A Picture Of Me Without You
TTITLE13=Mull Of Kintyre
EXTD=
EXTT0=
EXTT1=
EXTT2=
EXTT3=
EXTT4=
EXTT5=
EXTT6=
EXTT7=
EXTT8=
EXTT9=
EXTT10=
EXTT11=
EXTT12=
EXTT13=
PLAYORDER=
